/* XPM */
static char * font_13x16_xpm[] = {
"512 32 3 1",
" 	c None",
".	c #FEFEFE",
"+	c #FFFFFF",
"                                                                                                                                                                                                                                                                                                                                                                                                                                                                                                                                ",
"                                                                                                                                                                                                                                                                                                                                                                                                                                                                                                                                ",
"     .+.       ++++...         .....     +++...       +++++++++    +++++++++       .....     +++   +++    +++++++++       ++++++    +++    ++.   +++          ++.   .++    +++.  +++      .....      ++++...        .....      ++++...        .....      +++++++++    +++   +++    .+.   .+.   .+       +.   .+.   .+.   .+.     .+.   +++++++++                                                                                                                                                                                ",
"     +++       ++++++++       .++++++    +++++++.     +++++++++    +++++++++      .++++++    +++   +++    +++++++++       ++++++    +++   .+.    +++          ++.   .++    +++.  +++     .+++++.     +++++++.      .+++++.     ++++++++      .++++++     +++++++++    +++   +++    .+.   .+.   .+       +.    ++   ++     ++.   .++    +++++++++                                                                                                                                                                                ",
"     +++       +++   ++.     .++    .    +++  .++     +++          +++           .+.    .    +++   +++       +++             +++    +++  .+.     +++          +++   +++    +++.  +++     ++. .++     +++  .++.     ++. .++     +++  .++.    .++   .+        +++       +++   +++     ++   ++    .+.      +.    .+. .+.     .+.   .+.          ++.                                                                                                                                                                                ",
"    .+.+.      +++   ++.    .++.         +++   ++.    +++          +++          .++.         +++   +++       +++             +++    +++ .+.      +++          +++. .+++    ++++  +++    .++   ++.    +++   ++.    .++   ++.    +++   ++.    .++             +++       +++   +++     ++   ++    .+. .+. .+.     .+.++       ++   ++          .+.                                                                                                                                                                                 ",
"    .+.+.      +++   ++.    .++          +++   ++.    +++          +++          .++          +++   +++       +++             +++    +++.++       +++          +++. .+++    +++.. +++    .++   ++.    +++   ++.    .++   ++.    +++   ++.    .++.            +++       +++   +++     .+   +.     +. .+. .+      .+++.       .+. .+.         .++                                                                                                                                                                                  ",
"    ++ ++      ++++++..     .++          +++   ++.    ++++++++     ++++++++     .++          +++++++++       +++             +++    +++.+.       +++          +++...+++    +++.. +++    .++   ++.    +++  .++.    .++   ++.    +++  .++.     .+++.          +++       +++   +++     .+. .+.     +. .++ .+       .+.         ++.++          ++.                                                                                                                                                                                  ",
"    +. .+      ++++++..     .++          +++   ++.    ++++++++     ++++++++     .++ +++++    +++++++++       +++             +++    ++++++.      +++          +++ + +++    +++ + +++    .++   ++.    +++++++.     .++   ++.    ++++++..       ..+++.        +++       +++   +++     .+. .+.     +. +.+ .+       .+.         .+++.         .+.                                                                                                                                                                                   ",
"   .+. .+.     +++   ++.    .++          +++   ++.    +++          +++          .++ +++++    +++   +++       +++             +++    +++..+.      +++          +++ + +++    +++ ..+++    .++   ++.    ++++...      .++   ++.    ++++++.           .++.       +++       +++   +++      +. .+      ++ + +..+       +++          +++         .+.                                                                                                                                                                                    ",
"   .+++++.     +++   ++.    .++          +++   ++.    +++          +++          .++   +++    +++   +++       +++             ++.    +++  .+.     +++          +++   +++    +++ ..+++    .++   ++.    +++          .++   ++.    +++  .+.           ++.       +++       .++   ++.      ++ ++      .+.. ....      .+++.         +++         ++.                                                                                                                                                                                    ",
"   +++++++     +++   ++.    .++.         +++   ++.    +++          +++          .++   +++    +++   +++       +++       .     ++.    +++  .++     +++          +++   +++    +++  ++++    .++   ++.    +++          .++   ++.    +++  .++     .     ++.       +++       .++   ++.      .+.+.      .+.. ..+.      ++.++         +++        .+.                                                                                                                                                                                     ",
"   ++   ++     +++   ++.     .+.    .    +++  .++     +++          +++           .+.  +++    +++   +++       +++       +.   .++.    +++   .+.    +++          +++   +++    +++  .+++     ++. .++     +++           ++. .++     +++   .+.    +.   .++.       +++       .++. .++.      .+++.      .++. .++.     .+. .+.        +++       .+.                                                                                                                                                                                      ",
"  .+.   .+.    ++++++++       .++++++    +++++++.     +++++++++    +++            .+++++.    +++   +++    +++++++++    +++++++.     +++   .++    +++++++++    +++   +++    +++  .+++     .+++++.     +++           .+++++.     +++   .++    +++++++.        +++        .+++++.        +++       .++   ++.     ++   ++        +++       +++++++++                                                                                                                                                                                ",
"  .+.   .+.    ++++...         .....     +++...       +++++++++    +++             .....     +++   +++    +++++++++     ......      +++    .+.   +++++++++    +++   +++    +++   +++      .....      +++            ...+.      +++    .+.    ......         +++         .....         +++        ++   ++.    .+.   .+.       +++       +++++++++                                                                                                                                                                                ",
"                                                                                                                                                                                                                       .+.                                                                                                                                                                                                                                                                                                      ",
"                                                                                                                                                                                                                        .                                                                                                                                                                                                                                                                                                       ",
"    .....         .+++       ......       ......           .++     ++++++++        ....      +++++++++      .....        .....                                                                                                                                                                                                                                                                                                                                                                                                  ",
"   .+++++.      ++++++      +++++++.     +++++++.         .+++     ++++++++       ++++++     ++++++++.     ++++++.      .+++++.                                                                                                                                                                                                                                                                                                                                                                                                 ",
"   ++. .++      .. +++      .    .++.    .    .++.       .++++     +++           .+.   .          .++.    .++   ++.    .++. .++                                               ++                                                                                                                                                                                                                                                                                                                                                ",
"  .++   ++.        +++            ++.          ++.       ..+++     +++          .++               .++     .++   ++.    .++   ++.                                              ++                                                                                                                                                                                                                                                                                                                                                ",
"  .++   ++.        +++            ++.         .++.      .. +++     +++....      .++ ...           ++.     .++   ++.    .++   ++.       +++                                    ++                                                                                                                                                                                                                                                                                                                                                ",
"  .++ . ++.        +++           .+.       ++++.       .+. +++     +++++++.     .+++++++         .++        .+++.      .++   ++.       +++                                    ++                                                                                                                                                                                                                                                                                                                                                ",
"  .++ . ++.        +++          .+.        ++++.       +.  +++     .    .++.    .++. .++.        ++.        .+++.      .++. .++.       +++         ++++++                 ++++++++++                                                                                                                                                                                                                                                                                                                                            ",
"  .++   ++.        +++          +.            .++     ..   +++           ++.    .++   ++.       .++.       ++. .++      +++++++.                   ++++++                 ++++++++++                                                                                                                                                                                                                                                                                                                                            ",
"  .++   ++.        +++         +.              ++.    +++++++++          ++.    .++   ++.       .++       .++   ++.      ... ++.                   ++++++                     ++                                                                                                                                                                                                                                                                                                                                                ",
"  .++   ++.        +++        +.               ++.    +++++++++          ++.    .++   ++.      .++.       .++   ++.          ++.                                              ++                                                                                                                                                                                                                                                                                                                                                ",
"   ++. .++         +++       +.          .    .++.         +++     .    .++.     ++. .++.      .++        .++. .++.     .   .+.        +++                       +++          ++                                                                                                                                                                                                                                                                                                                                                ",
"   .+++++.      +++++++++   +++++++++    +++++++.          +++     +++++++.      .+++++.       ++.         .+++++.      ++++++         +++                       +++          ++                                                                                                                                                                                                                                                                                                                                                ",
"    .....       +++++++++   +++++++++     ......           +++      .....         .....       .++           .....        ....          +++                       +++                                                                                                                                                                                                                                                                                                                                                            ",
"                                                                                                                                                                                                                                                                                                                                                                                                                                                                                                                                ",
"                                                                                                                                                                                                                                                                                                                                                                                                                                                                                                                                "};
