/* XPM */
static char * font_9x12_xpm[] = {
"384 24 3 1",
" 	c None",
".	c #FEFEFE",
"+	c #FFFFFF",
"                                                                                                                                                                                                                                                                                                                                                                                                ",
"                                                                                                                                                                                                                                                                                                                                                                                                ",
"    ..     +++..      ...    ++..     ++++++   ++++++     ...    ++  ++   ++++++     ++++   ++  ..   ++       +   .+   ++  ++    ....    ++...     ....    ++...     ....    ++++++   ++  ++   ..  ..  ..   ..   ..  ..  ..    ..  ++++++                                                                                                                                                       ",
"    ++     ++  +.    ..  .   ++ .+    ++       ++        ..  .   ++  ++     ++         ++   ++  +.   ++       +.  .+   ++. ++    +  +    ++  +.    +  +    ++  +.   .+   .     ++     ++  ++   ..  ..  ..   ..    +  +    ..  ..       ..                                                                                                                                                       ",
"   ....    ++  +.   .+       ++  +.   ++       ++       .+       ++  ++     ++         ++   ++ ..    ++       ++..++   ++. ++   .+  +.   ++  +.   .+  +.   ++  +.   ..         ++     ++  ++    +  +   .. + ..    ....    .+  +.      .+                                                                                                                                                        ",
"   ....    ++  +.   .+       ++  +.   ++       ++       .+       ++  ++     ++         ++   ++..     ++       ++..++   ++. ++   .+  +.   ++  +.   .+  +.   ++  +.   .+.        ++     ++  ++    +  +   .. + ..     ++      ....       +.                                                                                                                                                        ",
"   ....    ++++.    .+       ++  +.   +++++    +++++    .+       ++++++     ++         ++   ++.+     ++       ++..++   ++..++   .+  +.   +++..    .+  +.   ++++.     .+..      ++     ++  ++    ....    ......     ..      .++.      ..                                                                                                                                                         ",
"   +  +    ++  +.   .+       ++  +.   ++       ++       .+ +++   ++  ++     ++         ++   ++ ..    ++       ++  ++   ++ .++   .+  +.   ++       .+  +.   ++ ..       .+.     ++     ++  ++    ....    .. ..      ++       ++      .+                                                                                                                                                          ",
"   ++++    ++  +.   .+       ++  +.   ++       ++       .+  ++   ++  ++     ++         +.   ++  +    ++       ++  ++   ++ .++   .+  +.   ++       .+  +.   ++  ..       +.     ++     .+  +.    ....    +. ..     ....      ++      +.                                                                                                                                                          ",
"  ..  ..   ++  +.    ..  .   ++ .+    ++       ++        .. ++   ++  ++     ++     .   +.   ++  ..   ++       ++  ++   ++ .++    +  +    ++        +  +    ++  .+   .   +.     ++     .+  +.     ++     +. .+     +  +      ++     ..                                                                                                                                                           ",
"  ..  ..   +++..      ...    ++..     ++++++   ++         ....   ++  ++   ++++++    ....    ++   +.  ++++++   ++  ++   ++  ++    ....    ++        ..+.    ++   ..   ....      ++      ....      ++     .. .+    ..  ..     ++     ++++++                                                                                                                                                       ",
"                                                                                                                                                      .                                                                                                                                                                                                                                         ",
"                                                                                                                                                                                                                                                                                                                                                                                                ",
"                                                                                                                                                                                                                                                                                                                                                                                                ",
"   ....    ++++      ....     ....       .+    +++++      ..     ++++++    ....     ....                                                                                                                                                                                                                                                                                                        ",
"   +  +      ++     .   +.   .   +.     .++    ++        +.          +.   .+  +.   .+  +                                                                                                                                                                                                                                                                                                        ",
"  .+  +.     ++         +.       +.     .++    ++       .+          .+.   .+  +.   .+  +.                                +                                                                                                                                                                                                                                                                      ",
"  .+  +.     ++         +.       +.    . ++    ++...    .+...       .+    .+  +.   .+  +.     ++                         +                                                                                                                                                                                                                                                                      ",
"  .+ .+.     ++        ..      ++.    .. ++       .+.   .+  +.      +.     .++.    .+  +.     ++      ++++               +                                                                                                                                                                                                                                                                      ",
"  .+  +.     ++       ..         +.   .  ++        +.   .+  +.     .+     .+  +.    ...+.             ++++            +++++++                                                                                                                                                                                                                                                                   ",
"  .+  +.     ++      ..          +.   ++++++       +.   .+  +.     ..     .+  +.       +.                                +                                                                                                                                                                                                                                                                      ",
"   +  +      ++     ..       .   +.      ++    .  .+.    +  +.     +.     .+  +.      .+      ++                ++       +                                                                                                                                                                                                                                                                      ",
"   ....    ++++++   ++++++    ....       ++     ...      ....     .+       ....      ..       ++                ++       +                                                                                                                                                                                                                                                                      ",
"                                                                                                                                                                                                                                                                                                                                                                                                "};
